<?xml version="1.0" encoding="utf-8"?>
<!-- Generator: Adobe Illustrator 24.0.2, SVG Export Plug-In . SVG Version: 6.00 Build 0)  -->
<svg version="1.1" id="Capa_1" xmlns="http://www.w3.org/2000/svg" xmlns:xlink="http://www.w3.org/1999/xlink" x="0px" y="0px"
	 viewBox="0 0 500 500" style="enable-background:new 0 0 500 500;" xml:space="preserve">
<style type="text/css">
	.st0{fill:#B87333;}
</style>
<g>
	<path class="st0" d="M15.7,258c1.1,19.2,5.9,38.2,14.3,55.5c8.3,17.3,20.1,33,34.5,45.8c7.2,6.4,15,12.1,23.2,17l6.3,3.5
		c2.1,1.1,4.2,2.3,6.4,3.3c2.2,1,4.3,2.1,6.6,3c2.2,0.9,4.4,1.9,6.7,2.7c18,6.8,37.5,10,56.9,9.2c9.7-0.4,19.4-1.8,28.8-4.1
		c9.4-2.3,18.6-5.8,27.3-10.1c8.7-4.3,17-9.5,24.6-15.5c7.7-5.9,14.6-12.7,20.9-20c12.6-14.6,22-31.8,28-50
		c6-18.2,8.5-37.3,7.6-56.4c-1-19-5.3-37.9-13.2-55.4c-7.9-17.5-19.2-33.6-33.4-46.8c-14.2-13.2-31.2-23.4-49.5-29.9
		c-18.3-6.6-37.9-9.1-57.3-7.9c-19.4,1.3-38.4,6.4-55.7,14.9c-8.7,4.2-16.9,9.4-24.6,15.2c-7.7,5.8-14.8,12.4-21.3,19.5
		C40,166.1,30.1,183,23.7,201.2C17.3,219.4,14.6,238.8,15.7,258z M8.8,258.4c-1.1-20.1,1.8-40.5,8.6-59.4
		c6.7-19,17.2-36.6,30.7-51.6c6.7-7.5,14.2-14.3,22.3-20.3c8.1-6,16.8-11.2,25.9-15.4c18.2-8.6,38.1-13.4,58-14.2
		c20-0.9,40.1,2.1,59,8.7c18.9,6.6,36.4,17,51.5,30c15.1,13.1,28,29.1,37.1,47.2c9.2,18,14.8,38,15.9,58.3c1.2,20.3-1.8,40.9-9,59.9
		c-7.1,19-18.2,36.4-31.9,51.1c-6.9,7.3-14.5,13.9-22.6,19.8c-8.1,5.9-16.8,11-25.8,15.2c-9.1,4.2-18.5,7.5-28.1,10
		c-9.6,2.5-19.5,4.2-29.5,4.9c-19.9,1.4-40.2-1-59.3-7.4c-2.4-0.8-4.7-1.7-7.1-2.5c-2.4-0.9-4.7-1.9-7-2.9c-2.3-1-4.6-2.2-6.8-3.2
		c-2.3-1.1-4.4-2.4-6.6-3.7c-8.7-5.2-16.8-11.2-24.3-17.9c-15-13.5-27.3-30-36-48.2C14.8,298.5,9.8,278.5,8.8,258.4z"/>
	<path class="st0" d="M493.2,258.4c-1.1,20.1-6.1,40-14.8,58.2c-8.7,18.2-21,34.7-36,48.2c-7.5,6.7-15.7,12.8-24.3,17.9
		c-2.2,1.2-4.4,2.6-6.6,3.7c-2.3,1.1-4.5,2.2-6.8,3.2c-2.3,1-4.6,2-7,2.9c-2.4,0.8-4.7,1.8-7.1,2.5c-19.1,6.3-39.4,8.8-59.3,7.4
		c-10-0.7-19.9-2.3-29.5-4.9c-9.6-2.5-19.1-5.9-28.1-10c-9.1-4.2-17.7-9.3-25.8-15.2c-8.1-5.9-15.7-12.5-22.6-19.8
		c-13.7-14.7-24.8-32-31.9-51.1c-7.2-19-10.2-39.6-9-59.9c1.1-20.3,6.7-40.3,15.9-58.3c9.1-18.1,22-34.1,37.1-47.2
		c15.2-13.1,32.7-23.4,51.5-30c18.9-6.6,39-9.6,59-8.7c20,0.9,39.9,5.7,58,14.2c9.1,4.3,17.8,9.4,25.9,15.4
		c8.1,6,15.5,12.8,22.3,20.3c13.5,15,24,32.6,30.7,51.6C491.4,218,494.3,238.3,493.2,258.4z M486.3,258c1-19.2-1.6-38.6-8-56.8
		c-6.4-18.2-16.3-35.1-29.2-49.4c-6.4-7.2-13.6-13.7-21.3-19.5c-7.7-5.8-15.9-10.9-24.6-15.2c-17.3-8.5-36.4-13.6-55.7-14.9
		c-19.3-1.2-39,1.4-57.3,7.9c-18.3,6.4-35.3,16.6-49.5,29.9c-14.2,13.2-25.5,29.3-33.4,46.8c-7.9,17.5-12.2,36.4-13.2,55.4
		c-0.9,19,1.6,38.2,7.6,56.4c6,18.1,15.4,35.3,28,50c6.3,7.3,13.3,14.1,20.9,20c7.6,6,15.9,11.1,24.6,15.5
		c8.7,4.3,17.9,7.8,27.3,10.1c9.4,2.3,19.1,3.7,28.8,4.1c19.4,0.7,38.9-2.4,56.9-9.2c2.3-0.8,4.5-1.8,6.7-2.7c2.2-0.9,4.4-2,6.6-3
		c2.2-1.1,4.3-2.2,6.4-3.3l6.3-3.5c8.3-4.9,16.1-10.6,23.2-17c14.3-12.8,26.1-28.5,34.5-45.8C480.4,296.3,485.2,277.3,486.3,258z"/>
</g>
</svg>
