<?xml version="1.0" encoding="utf-8"?>
<!-- Generator: Adobe Illustrator 24.0.2, SVG Export Plug-In . SVG Version: 6.00 Build 0)  -->
<svg version="1.1" id="Capa_1" xmlns="http://www.w3.org/2000/svg" xmlns:xlink="http://www.w3.org/1999/xlink" x="0px" y="0px"
	 viewBox="0 0 1000 400" style="enable-background:new 0 0 1000 400;" xml:space="preserve">
<style type="text/css">
	.st0{fill:#EAE7E3;}
</style>
<g>
	<path class="st0" d="M142.9,188.9c5.9,38.5-21.4,63.7-48,67.2c-25.2,3.5-60.2-7-66-48c-5-34.4,20.4-60.5,46.4-64
		C102.5,140.2,137.4,153.1,142.9,188.9z M94.4,250.3c20.4-3.1,40.1-27.5,34.7-58.7c-5.1-29-30-44.4-51.1-41.3
		c-23.3,3.5-40.1,25.3-35.9,56.4C46.1,235.7,70.4,253.8,94.4,250.3z"/>
	<path class="st0" d="M253.7,249.1c-1.2,3.5-2.2,3.4-4.1,4.1c-3.7,1.2-17.4,3.5-29.6,3.5c-34.3,0-57.8-24-57.8-57.4
		c0-31.6,24.3-56.1,61.9-56.1c8.2,0,29.7,1.8,28.6,6.9c-0.6,2.9-0.7,5.7-1.3,10.5c0,2.5-2.3,2.5-3.4,0.1
		c-3.5-9.4-14.2-11.7-25.6-11.7c-23,0-46.1,14.5-46.1,48.5c0,41.4,27.7,52.9,44.2,52.9c12.2,0,24-2.2,31.5-9.7c2-2,4.5-2.2,3.7,1.5
		C254.7,245.2,254.9,245.3,253.7,249.1z"/>
	<path class="st0" d="M322.1,144.9c19.6,0,22-0.4,23.6-0.9c1.6-0.4,2.8-0.6,2.8,1.8c0,4.5,0.6,7.8,0.6,10.5c0,1.8-1.6,1.8-2.6,0.7
		c-3.5-4.2-11-5.7-16-6.4c-3.1-0.7-11.4-0.7-12.6-0.6c-3.2,0.3-2.6,3.2-2.8,6.1v72c0,17.9,1.6,23,4.4,24.9c2.2,1.3,1.5,2.8-1.3,2.6
		c-2.2-0.4-6-0.4-8.8-0.4s-6.7,0-8.9,0.4c-2.5,0.1-3.2-1.3-1.3-2.6c3.1-1.9,4.5-6.4,4.5-24.3c0-18.7,0.3-69,0.3-72.5
		c-0.1-3.1-0.3-6.3-2.5-6.3c-1.5,0-10.5-0.1-13.6,0.6c-5.1,0.7-12,1.6-16,6.4c-1,1-2.6,1-2.6-0.7c0-2.8,0.6-6,0.6-10.5
		c0-2.3,1.2-2.2,2.8-1.8c1.6,0.4,4,0.9,23.6,0.9H322.1z"/>
	<path class="st0" d="M382.6,211.6c-0.3,0-0.6,0-0.9,0.1c-0.6,0.1-1,0.6-1.3,1.3c-0.7,2-11.1,29.1-11.7,30.5c-1.6,4-0.9,7,0.7,8.6
		c1.3,1.3,0.9,3.8-1.5,3.4c-2.5-0.3-4.8-0.4-7-0.4c-2.8,0-5.1,0.1-7,0.4c-2.2,0.1-2.9-1.6-1-2.9c4-2.8,5.6-6.9,8.5-13.8
		c3.1-6.9,37.9-93.1,38.7-95.3c1-2.2,2.2-2,2.9-0.4c0.7,1.6,37,91.4,38.7,95.5c3.7,8.6,7,13.2,9.2,13.9c2.2,1,2.6,2.9-0.1,3.1
		c-1.9,0.1-5.4-0.4-10-0.4c-2.9,0-7.6,0.3-9.2,0.4c-2.5,0.1-2.3-1.8-0.7-3.5c1.3-1.2,1.3-3.4,0.6-6.1c-1.8-6.4-10.4-29.3-12-32.5
		c-0.6-1-0.3-1.8-2.5-1.8H382.6z M414.9,205.5c1.8,0,1.6-0.7,1.2-1.9c-0.6-1-14.1-36.5-15.2-39.2c-0.6-1.8-1.5-1.3-2,0.3
		c-0.6,1.8-12.9,34.6-14.6,38.5c-0.6,1.6-1.2,2.3,0.7,2.3H414.9z"/>
	<path class="st0" d="M537.6,156.4c1.6-4,0.9-7-0.7-8.6c-1.6-1.3-0.9-3.5,1.5-3.4c2.5,0.1,5,0.4,7.3,0.4c2.9,0,4.4,0,6.7-0.4
		c2.2-0.4,2.9,1.5,1,2.8c-4,2.8-5.7,7-8.5,13.9c-3.1,6.9-38.1,93.1-38.8,95.3s-1.9,2-2.9,0.4c-0.7-1.5-36.9-91.4-38.5-95.5
		c-3.7-8.6-7-13.3-9.2-14.1s-2.8-2.6,0-3.1c1.9-0.1,6.4,0.4,10,0.6c2.9,0,8.8-0.6,10.1-0.6c2.5-0.1,2.5,1.8,0.7,3.5
		c-1.2,1.2-1.3,3.8-0.6,6.3c1.6,6.6,30.2,73.9,30.9,76.9c0.6,1.8,1.5,1.3,2-0.3C509.5,228.9,536.9,157.8,537.6,156.4z"/>
	<path class="st0" d="M580.3,155.6c-0.4-5.7-2.3-7.6-3.5-8.6c-1.3-1.2-0.9-2.6,0.7-2.6c2.8,0,7.8,0.4,12.9,0.4h35.4
		c3.1,0,5-0.4,4.8-0.4c1.6-0.4,3.2-0.7,3.2,1.6l-0.7,10.4c0,1.9-2,1.8-2.8,0.6c-4.7-8.2-19.6-7.9-28.8-7.9c-6.3,0-9.5,0.3-10,3.2
		c0.1,35.3,0,35,0.3,35.3c-0.1,0.6,0.9,2.5,3.4,2.5c3.2,0,23.4-0.1,26.6-0.1c1.6-0.1,2.3-0.1,3.7-0.3c1.6-0.4,2.6,0.1,2.6,1.3v6.6
		c0,2.5-1.2,2.8-2.8,1.5c-2.2-1.6-7.3-2.9-11.3-2.8c-5.4,0.1-16.4,0.1-20.1,0.1c-2.1,0.3-2.5,1.5-2.5,2.3v39.8
		c0,6.9,3.4,9.7,7.9,10.7c5.3,1.2,17.3,1.8,26.1-0.9c4.5-1.3,8.5-3.5,10.7-7.2c1-2.3,3.7-2,3.5,0.4c-0.4,2.8-1,7.9-1.8,11.3
		c-0.4,2.3-1.5,2.6-3.7,2.6c-1.6,0-21.5-0.3-30-0.3c-7.5,0-24.2,0.1-27.1,0.6c-2.8,0.1-3.2-1.3-1.3-2.6c2.9-1.8,4.8-6.7,4.4-24.5
		V155.6z"/>
	<path class="st0" d="M833.6,188.9c5.9,38.5-21.4,63.7-48,67.2c-25.2,3.5-60.2-7-66-48c-5-34.4,20.4-60.5,46.4-64
		C793.2,140.2,828.2,153.1,833.6,188.9z M785.1,250.3c20.4-3.1,40.1-27.5,34.7-58.7c-5.1-29-30-44.4-51.1-41.3
		c-23.3,3.5-40.1,25.3-35.9,56.4C736.8,235.7,761.1,253.8,785.1,250.3z"/>
	<path class="st0" d="M862.5,253.1c2.9-1.9,4.7-6.7,4.7-24.2c0-14.8,0.1-61.5,0.1-74.8c0-4.2-2.3-6.6-3.7-7
		c-2.3-1.2-0.9-2.8,0.7-2.8c1.9,0,3.2,0.3,6.9,0.4c3.7-0.1,4.2-0.3,6.4-0.3c1.6,0,2.5,1.5,2.9,2.5c0.7,1.6,1.6,1.8,6.3,7.6
		c4.8,5.3,55.2,60.2,71,78c0-16.3,0-47,0.1-61.6c0.1-17.7-2.2-22.1-4.8-24c-2.2-1.3-1.5-2.8,1.3-2.6c2.2,0.4,4.7,0.6,7.5,0.4
		c2.8,0,5.1-0.1,7.3-0.4c2.8-0.4,3.2,1.3,1.3,2.6c-2.8,2-4.5,6.1-4.5,23.9c0,17.9-0.1,81.3-0.1,84.5c0,2.8-2.6,3.1-4.4,1.3
		c2.8,2.8-3.4-4.5-16.4-19.2c-15.1-16.7-61.4-68.4-69.8-77.6v69.3c-0.4,17.7,1.3,22,4.2,24c1.9,1.3,1.3,3.1-1.5,2.6
		c-2.2-0.1-4.5-0.6-7.3-0.6c-2.8,0-4.8,0.1-7,0.6C861,255.9,860.3,254.4,862.5,253.1z"/>
</g>
</svg>
